<?xml version="1.0" encoding="UTF-8" standalone="no"?>
<!-- Created with Inkscape (http://www.inkscape.org/) -->

<svg
   version="1.1"
   id="svg18"
   width="1481.3906"
   height="2709.1865"
   viewBox="0 0 1481.3906 2709.1865"
   sodipodi:docname="top_view_car.eps"
   xmlns:inkscape="http://www.inkscape.org/namespaces/inkscape"
   xmlns:sodipodi="http://sodipodi.sourceforge.net/DTD/sodipodi-0.dtd"
   xmlns="http://www.w3.org/2000/svg"
   xmlns:svg="http://www.w3.org/2000/svg">
  <defs
     id="defs22" />
  <sodipodi:namedview
     id="namedview20"
     pagecolor="#ffffff"
     bordercolor="#000000"
     borderopacity="0.25"
     inkscape:showpageshadow="2"
     inkscape:pageopacity="0.0"
     inkscape:pagecheckerboard="0"
     inkscape:deskcolor="#d1d1d1"
     showgrid="false" />
  <g
     id="g26"
     inkscape:groupmode="layer"
     inkscape:label="Page 1"
     transform="matrix(1.3333333,0,0,-1.3333333,-4509.3975,6242.9465)">
    <g
       id="g4104">
      <path
         d="m 4360.05,4454.86 h -44.17 v -277.4 h 44.17 c 25.35,0 45.9,20.55 45.9,45.9 v 185.6 c 0,25.35 -20.55,45.9 -45.9,45.9"
         style="fill:#231f20;fill-opacity:1;fill-rule:nonzero;stroke:none;stroke-width:0.1"
         id="path118" />
      <path
         d="m 3515.09,4454.86 h 44.17 v -277.4 h -44.17 c -25.35,0 -45.9,20.55 -45.9,45.9 v 185.6 c 0,25.35 20.55,45.9 45.9,45.9"
         style="fill:#231f20;fill-opacity:1;fill-rule:nonzero;stroke:none;stroke-width:0.1"
         id="path120" />
      <path
         d="m 4360.05,3097.49 h -44.17 v -277.4 h 44.17 c 25.35,0 45.9,20.55 45.9,45.9 v 185.6 c 0,25.35 -20.55,45.9 -45.9,45.9"
         style="fill:#231f20;fill-opacity:1;fill-rule:nonzero;stroke:none;stroke-width:0.1"
         id="path122" />
      <path
         d="m 3515.09,3097.49 h 44.17 v -277.4 h -44.17 c -25.35,0 -45.9,20.55 -45.9,45.9 v 185.6 c 0,25.35 20.55,45.9 45.9,45.9"
         style="fill:#231f20;fill-opacity:1;fill-rule:nonzero;stroke:none;stroke-width:0.1"
         id="path124" />
      <path
         d="M 4376.41,4466.91 V 2730.22 c 0,-44.13 -35.77,-79.9 -79.89,-79.9 h -717.9 c -44.12,0 -79.89,35.77 -79.89,79.9 v 1736.69 c 0,48.32 15.34,92.92 41.25,128.85 3.88,5.37 7.98,10.54 12.32,15.5 37.98,43.57 92.91,70.95 154.01,70.95 h 462.52 c 68.06,0 128.47,-33.97 166.32,-86.45 25.92,-35.93 41.26,-80.53 41.26,-128.85"
         style="fill:#344444;fill-opacity:1;fill-rule:nonzero;stroke:none;stroke-width:0.1"
         id="path126" />
      <path
         d="m 3936.73,4154.22 c 0,0 -257.91,-1.6 -386.49,-48.18 0,0 22.76,-89.98 125.02,-170.27 11.88,-9.33 26.53,-14.43 41.64,-14.43 h 219.83 219.83 c 15.11,0 29.76,5.1 41.64,14.43 102.26,80.29 125.02,170.27 125.02,170.27 -128.58,46.58 -386.49,48.18 -386.49,48.18"
         style="fill:#c2f2f2;fill-opacity:1;fill-rule:nonzero;stroke:none;stroke-width:0.1"
         id="path128" />
      <path
         d="m 4027.22,3921.34 h -83.56 l -219.83,219.83 c 26.24,2.99 52.2,5.3 76.49,7.08 l 226.9,-226.91"
         style="fill:#daf7f7;fill-opacity:1;fill-rule:nonzero;stroke:none;stroke-width:0.1"
         id="path130" />
      <path
         d="m 4193.96,3932.7 c 0.01,0.01 0.02,0.01 0.02,0.01 0,0 -0.01,0 -0.02,-0.01 m 0.15,0.1 c 0.01,0 0.01,0.01 0.02,0.02 -0.01,-0.01 -0.01,-0.02 -0.02,-0.02 m 0.13,0.09 c 0.02,0.01 0.04,0.02 0.06,0.04 -0.02,-0.02 -0.04,-0.03 -0.06,-0.04 m 0.14,0.09 c 0.02,0.02 0.05,0.03 0.07,0.05 -0.02,-0.02 -0.05,-0.03 -0.07,-0.05 m 0.13,0.09 c 0.04,0.03 0.07,0.05 0.1,0.07 -0.03,-0.02 -0.06,-0.04 -0.1,-0.07 m 0.14,0.1 c 0.04,0.02 0.08,0.05 0.11,0.07 -0.03,-0.02 -0.07,-0.05 -0.11,-0.07 m 0.14,0.09 c 0.05,0.04 0.09,0.07 0.14,0.1 -0.05,-0.03 -0.09,-0.07 -0.14,-0.1 m 0.14,0.1 c 1.11,0.77 2.2,1.57 3.27,2.41 0.09,0.07 0.19,0.15 0.28,0.22 -0.09,-0.07 -0.19,-0.15 -0.28,-0.22 -1.07,-0.84 -2.16,-1.64 -3.27,-2.41 m 3.6,2.67 c 0.08,0.07 0.16,0.13 0.24,0.19 -0.08,-0.06 -0.16,-0.12 -0.24,-0.19 m 0.29,0.23 c 0.08,0.07 0.18,0.14 0.26,0.2 -0.09,-0.06 -0.17,-0.13 -0.26,-0.2 m 0.28,0.22 c 0.09,0.07 0.19,0.15 0.28,0.22 -0.09,-0.07 -0.19,-0.15 -0.28,-0.22 m 0.3,0.23 c 15.77,12.48 29.64,25.18 41.81,37.72 -12.17,-12.54 -26.04,-25.24 -41.81,-37.72 m 41.85,37.77 c 0.05,0.05 0.11,0.11 0.16,0.17 -0.05,-0.06 -0.11,-0.12 -0.16,-0.17 m 0.23,0.24 c 0.05,0.05 0.1,0.11 0.16,0.16 -0.06,-0.05 -0.11,-0.11 -0.16,-0.16 m 0.22,0.23 c 0.04,0.04 0.09,0.09 0.13,0.13 -0.04,-0.04 -0.08,-0.09 -0.13,-0.13 m 0.23,0.23 c 0.03,0.03 0.05,0.05 0.08,0.09 -0.03,-0.03 -0.05,-0.06 -0.08,-0.09 m 0.32,0.34 c 0.02,0.02 0.05,0.05 0.07,0.07 -0.02,-0.02 -0.04,-0.05 -0.07,-0.07 m 0.22,0.22 c 0.01,0.02 0.04,0.04 0.05,0.06 -0.02,-0.02 -0.03,-0.04 -0.05,-0.06 m 0.2,0.21 c 0.01,0.02 0.04,0.04 0.05,0.05 -0.02,-0.01 -0.03,-0.03 -0.05,-0.05 m 0.21,0.22 0.01,0.01 c 0,0 0,0 -0.01,-0.01 m -318.37,177.88 v 0 c 7.86,0.15 12.22,0.17 12.22,0.17 0,0 -4.35,-0.02 -12.22,-0.17 m 15.16,0.14 c -0.01,0 -0.02,0 -0.03,0 0.01,0 0.02,0 0.03,0 m -1.76,0.02 c -0.01,0 -0.01,0 -0.02,0 0.01,0 0.01,0 0.02,0 m -0.22,0.01 c -0.01,0 -0.02,0 -0.03,0 0.01,0 0.02,0 0.03,0 m -0.19,0 c -0.02,0 -0.04,0 -0.05,0 0.01,0 0.03,0 0.05,0 m -0.11,0 h -0.01 0.01 m -0.33,0 c -0.01,0 -0.03,0 -0.04,0 0.01,0 0.03,0 0.04,0 m -0.12,0 c -0.04,0 -0.07,0 -0.09,0 0.02,0 0.05,0 0.09,0 m -0.17,0 c -0.03,0 -0.04,0 -0.04,0 0,0 0.01,0 0.04,0"
         style="fill:#838d8d;fill-opacity:1;fill-rule:nonzero;stroke:none;stroke-width:0.1"
         id="path132" />
      <path
         d="m 4157.2,3921.36 -232.69,232.69 c 7.87,0.15 12.22,0.17 12.22,0.17 v 0 0 c 0,0 0.01,0 0.04,0 0.02,0 0.05,0 0.08,0 0.02,0 0.05,0 0.09,0 0.02,0 0.05,0 0.08,0 0.01,0 0.03,0 0.04,0 0.09,0 0.2,0 0.32,0 h 0.01 c 0.02,0 0.04,0 0.06,0 0.01,0 0.03,0 0.05,0 0.05,0 0.1,0 0.16,0 0.01,0 0.02,0 0.03,0 0.06,0 0.13,-0.01 0.2,-0.01 0.01,0 0.01,0 0.02,0 0.45,0 1.03,-0.01 1.73,-0.02 0.01,0 0.02,0 0.03,0 19.88,-0.23 137.15,-2.28 247.61,-17.79 l 101.83,-101.83 c -11.53,-17.94 -26.63,-37.95 -46.22,-58.39 l -0.01,-0.01 c -0.05,-0.05 -0.1,-0.11 -0.16,-0.17 -0.01,-0.01 -0.04,-0.03 -0.05,-0.05 -0.05,-0.05 -0.1,-0.1 -0.15,-0.15 -0.01,-0.02 -0.04,-0.04 -0.05,-0.06 -0.05,-0.05 -0.1,-0.1 -0.15,-0.15 -0.02,-0.02 -0.05,-0.05 -0.07,-0.07 -0.08,-0.08 -0.16,-0.17 -0.24,-0.25 -0.03,-0.04 -0.05,-0.06 -0.08,-0.09 -0.03,-0.03 -0.07,-0.07 -0.1,-0.1 -0.04,-0.04 -0.09,-0.09 -0.13,-0.13 -0.02,-0.03 -0.04,-0.05 -0.06,-0.07 -0.06,-0.05 -0.11,-0.11 -0.16,-0.16 -0.02,-0.03 -0.05,-0.05 -0.07,-0.07 -0.05,-0.06 -0.11,-0.12 -0.16,-0.17 -0.02,-0.02 -0.03,-0.03 -0.04,-0.05 -12.17,-12.54 -26.04,-25.24 -41.81,-37.72 -0.01,0 -0.02,-0.01 -0.02,-0.01 -0.09,-0.07 -0.19,-0.15 -0.28,-0.22 0,0 -0.01,-0.01 -0.02,-0.02 -0.08,-0.06 -0.18,-0.13 -0.26,-0.2 -0.01,-0.01 -0.03,-0.02 -0.05,-0.04 -0.08,-0.06 -0.16,-0.12 -0.24,-0.19 -0.02,-0.01 -0.03,-0.02 -0.05,-0.04 -0.09,-0.07 -0.19,-0.15 -0.28,-0.22 -1.07,-0.84 -2.16,-1.64 -3.27,-2.41 v 0 c -0.05,-0.03 -0.09,-0.06 -0.14,-0.1 -0.01,0 -0.02,-0.01 -0.03,-0.02 -0.03,-0.02 -0.07,-0.05 -0.11,-0.07 -0.01,-0.01 -0.02,-0.02 -0.04,-0.03 -0.03,-0.02 -0.06,-0.04 -0.1,-0.07 -0.02,-0.01 -0.04,-0.02 -0.06,-0.04 -0.02,-0.02 -0.05,-0.03 -0.07,-0.05 -0.03,-0.02 -0.06,-0.04 -0.08,-0.05 -0.02,-0.02 -0.04,-0.03 -0.06,-0.04 -0.04,-0.03 -0.07,-0.05 -0.11,-0.07 -0.01,-0.01 -0.01,-0.02 -0.02,-0.02 -0.05,-0.03 -0.09,-0.06 -0.13,-0.09 0,0 -0.01,0 -0.02,-0.01 -10.86,-7.25 -23.63,-11.22 -36.76,-11.34"
         style="fill:#daf7f7;fill-opacity:1;fill-rule:nonzero;stroke:none;stroke-width:0.1"
         id="path134" />
      <path
         d="m 4336.35,4162.1 v 245.67 c 0,108.06 -84.45,195.65 -188.64,195.65 h -420.29 c -104.18,0 -188.63,-87.59 -188.63,-195.65 v -245.23 c 153.91,40.46 397.94,41.98 397.94,41.98 0,0 245.81,-1.53 399.62,-42.42"
         style="fill:#495757;fill-opacity:1;fill-rule:nonzero;stroke:none;stroke-width:0.1"
         id="path136" />
      <path
         d="M 3533.79,4037.78 V 3693.6 l 80.85,48.84 c 11.87,7.17 18.97,20.19 18.49,34.05 -6.72,195.49 -99.34,261.29 -99.34,261.29"
         style="fill:#c2f2f2;fill-opacity:1;fill-rule:nonzero;stroke:none;stroke-width:0.1"
         id="path138" />
      <path
         d="m 4241.69,3776.49 c -0.48,-13.86 6.62,-26.88 18.49,-34.05 l 80.85,-48.84 v 344.18 c 0,0 -92.62,-65.8 -99.34,-261.29"
         style="fill:#c2f2f2;fill-opacity:1;fill-rule:nonzero;stroke:none;stroke-width:0.1"
         id="path140" />
      <path
         d="m 4471.27,4092.18 c -58.51,29.47 -103.22,16.7 -120.88,9.15 v -18.1 c 4.78,-0.66 10.97,-3.25 18.6,-9.77 2.11,-1.81 4.33,-3.92 6.67,-6.37 17.11,-17.97 88.13,-17.88 110.59,-4.37 11.15,6.7 10.33,16.71 -14.98,29.46"
         style="fill:#495757;fill-opacity:1;fill-rule:nonzero;stroke:none;stroke-width:0.1"
         id="path142" />
      <path
         d="m 3403.86,4092.18 c 58.52,29.47 103.23,16.7 120.89,9.15 v -18.1 c -4.78,-0.66 -10.97,-3.25 -18.6,-9.77 -2.11,-1.81 -4.34,-3.92 -6.67,-6.37 -17.12,-17.97 -88.13,-17.88 -110.59,-4.37 -11.15,6.7 -10.33,16.71 14.97,29.46"
         style="fill:#495757;fill-opacity:1;fill-rule:nonzero;stroke:none;stroke-width:0.1"
         id="path144" />
      <path
         d="m 3761.51,4673.16 c -63.54,-95.07 -203.09,-70.95 -203.09,-70.95 37.98,43.57 92.91,70.95 154.01,70.95 h 49.08"
         style="fill:#eaea28;fill-opacity:1;fill-rule:nonzero;stroke:none;stroke-width:0.1"
         id="path146" />
      <path
         d="m 4111.95,4673.16 c 63.54,-95.07 203.09,-70.95 203.09,-70.95 -37.97,43.57 -92.91,70.95 -154.01,70.95 h -49.08"
         style="fill:#eaea28;fill-opacity:1;fill-rule:nonzero;stroke:none;stroke-width:0.1"
         id="path148" />
      <path
         d="m 4323.22,3626.97 v -868.69 c 0,-26.15 -16.98,-48.33 -40.52,-56.1 -5.83,-1.94 -12.07,-2.98 -18.55,-2.98 h -654.84 c -7.62,0 -14.9,1.44 -21.59,4.07 -21.95,8.62 -37.48,30 -37.48,55.01 v 868.69 h 772.98"
         style="fill:#253030;fill-opacity:1;fill-rule:nonzero;stroke:none;stroke-width:0.1"
         id="path150" />
      <path
         d="m 4195.21,3716.04 c -12.22,5.18 -25.35,7.85 -38.62,7.85 h -219.02 -219.02 c -13.27,0 -26.4,-2.67 -38.62,-7.85 l -124.24,-52.73 h 381.88 381.88 l -124.24,52.73"
         style="fill:#c2f2f2;fill-opacity:1;fill-rule:nonzero;stroke:none;stroke-width:0.1"
         id="path152" />
      <path
         d="m 4159.93,3888.94 h -444.71 c -14.12,0 -25.56,-11.44 -25.56,-25.56 v -84.45 c 0,-14.11 11.44,-25.55 25.56,-25.55 h 444.71 c 14.11,0 25.55,11.44 25.55,25.55 v 84.45 c 0,14.12 -11.44,25.56 -25.55,25.56"
         style="fill:#495757;fill-opacity:1;fill-rule:nonzero;stroke:none;stroke-width:0.1"
         id="path154" />
      <path
         d="m 3614.18,2699.2 h -4.87 c -7.62,0 -14.9,1.44 -21.59,4.07 v 923.7 h 26.46 V 2699.2"
         style="fill:#1d2626;fill-opacity:1;fill-rule:nonzero;stroke:none;stroke-width:0.1"
         id="path156" />
      <path
         d="m 3671.29,2699.2 h 26.4602 v 927.77 H 3671.29 Z"
         style="fill:#1d2626;fill-opacity:1;fill-rule:nonzero;stroke:none;stroke-width:0.1"
         id="path158" />
      <path
         d="m 3754.85,2699.2 h 26.4602 v 927.77 H 3754.85 Z"
         style="fill:#1d2626;fill-opacity:1;fill-rule:nonzero;stroke:none;stroke-width:0.1"
         id="path160" />
      <path
         d="m 3838.41,2699.2 h 26.4699 v 927.77 H 3838.41 Z"
         style="fill:#1d2626;fill-opacity:1;fill-rule:nonzero;stroke:none;stroke-width:0.1"
         id="path162" />
      <path
         d="m 3921.98,2699.2 h 26.4598 v 927.77 H 3921.98 Z"
         style="fill:#1d2626;fill-opacity:1;fill-rule:nonzero;stroke:none;stroke-width:0.1"
         id="path164" />
      <path
         d="m 4005.55,2699.2 h 26.4602 v 927.77 H 4005.55 Z"
         style="fill:#1d2626;fill-opacity:1;fill-rule:nonzero;stroke:none;stroke-width:0.1"
         id="path166" />
      <path
         d="m 4089.11,2699.2 h 26.4598 v 927.77 H 4089.11 Z"
         style="fill:#1d2626;fill-opacity:1;fill-rule:nonzero;stroke:none;stroke-width:0.1"
         id="path168" />
      <path
         d="m 4172.67,2699.2 h 26.4598 v 927.77 H 4172.67 Z"
         style="fill:#1d2626;fill-opacity:1;fill-rule:nonzero;stroke:none;stroke-width:0.1"
         id="path170" />
      <path
         d="m 4264.15,2699.2 h -7.91 v 927.77 h 26.46 v -924.79 0 c -5.83,-1.94 -12.07,-2.98 -18.55,-2.98"
         style="fill:#1d2626;fill-opacity:1;fill-rule:nonzero;stroke:none;stroke-width:0.1"
         id="path172" />
      <path
         d="m 3767.89,2679.1 v -28.78 h -175.26 v 28.78 h 175.26"
         style="fill:#cc3b3b;fill-opacity:1;fill-rule:nonzero;stroke:none;stroke-width:0.1"
         id="path174" />
      <path
         d="m 4282.51,2679.1 v -28.78 h -175.26 v 28.78 h 175.26"
         style="fill:#cc3b3b;fill-opacity:1;fill-rule:nonzero;stroke:none;stroke-width:0.1"
         id="path176" />
    </g>
  </g>
</svg>
