<?xml version="1.0" encoding="UTF-8" standalone="no"?>
<!-- Created with Inkscape (http://www.inkscape.org/) -->

<svg
   version="1.1"
   id="svg18"
   width="1359.0269"
   height="2779.4265"
   viewBox="0 0 1359.0269 2779.4265"
   sodipodi:docname="top_view_car.eps"
   xmlns:inkscape="http://www.inkscape.org/namespaces/inkscape"
   xmlns:sodipodi="http://sodipodi.sourceforge.net/DTD/sodipodi-0.dtd"
   xmlns="http://www.w3.org/2000/svg"
   xmlns:svg="http://www.w3.org/2000/svg">
  <defs
     id="defs22" />
  <sodipodi:namedview
     id="namedview20"
     pagecolor="#ffffff"
     bordercolor="#000000"
     borderopacity="0.25"
     inkscape:showpageshadow="2"
     inkscape:pageopacity="0.0"
     inkscape:pagecheckerboard="0"
     inkscape:deskcolor="#d1d1d1"
     showgrid="false" />
  <g
     id="g26"
     inkscape:groupmode="layer"
     inkscape:label="Page 1"
     transform="matrix(1.3333333,0,0,-1.3333333,-4570.5864,3207.2534)">
    <g
       id="g4448">
      <path
         d="m 4170.95,2103.92 -23.44,41.6 c 0,0 -114.05,39.48 -207.13,39.48 -93.07,0 -207.12,-39.48 -207.12,-39.48 l -23.44,-41.6 c -69.81,0 -180.03,-27.5 -180.03,-27.5 0,0 -2.99,-1411.43 -3.56,-1703.42 -0.06,-28.77 23.25,-52.13 52.03,-52.13 h 362.12 358.56 c 28.73,0 52.03,23.3 52.03,52.03 v 1703.52 c 0,0 -110.22,27.5 -180.02,27.5"
         style="fill:#2470b5;fill-opacity:1;fill-rule:nonzero;stroke:none;stroke-width:0.1"
         id="path252" />
      <path
         d="m 4390.28,2195.73 h -47.32 v -297.26 h 47.32 c 27.17,0 49.19,22.02 49.19,49.19 v 198.88 c 0,27.16 -22.02,49.19 -49.19,49.19"
         style="fill:#231f20;fill-opacity:1;fill-rule:nonzero;stroke:none;stroke-width:0.1"
         id="path254" />
      <path
         d="m 3484.87,2195.73 h 47.32 v -297.26 h -47.32 c -27.17,0 -49.19,22.02 -49.19,49.19 v 198.88 c 0,27.16 22.02,49.19 49.19,49.19"
         style="fill:#231f20;fill-opacity:1;fill-rule:nonzero;stroke:none;stroke-width:0.1"
         id="path256" />
      <path
         d="m 4397.26,830.65 h -48.05 V 528.81 h 48.05 c 27.58,0 49.95,22.37 49.95,49.95 V 780.7 c 0,27.59 -22.37,49.95 -49.95,49.95"
         style="fill:#231f20;fill-opacity:1;fill-rule:nonzero;stroke:none;stroke-width:0.1"
         id="path258" />
      <path
         d="m 3477.89,830.65 h 48.05 V 528.81 h -48.05 c -27.59,0 -49.95,22.37 -49.95,49.95 V 780.7 c 0,27.59 22.36,49.95 49.95,49.95"
         style="fill:#231f20;fill-opacity:1;fill-rule:nonzero;stroke:none;stroke-width:0.1"
         id="path260" />
      <path
         d="m 3938.6,1799.29 c 0,0 -281.88,-1.76 -422.41,-52.66 0,0 24.87,-98.34 136.64,-186.1 12.99,-10.19 29,-15.76 45.51,-15.76 h 240.26 240.26 c 16.51,0 32.52,5.57 45.51,15.76 111.76,87.76 136.64,186.1 136.64,186.1 -140.53,50.9 -422.41,52.66 -422.41,52.66"
         style="fill:#231f20;fill-opacity:1;fill-rule:nonzero;stroke:none;stroke-width:0.1"
         id="path264" />
      <path
         d="M 3516.19,1648.96 V 442.54 c 0,-29.39 31.23,-48.25 57.25,-34.57 l 38.81,20.42 c 17.47,9.18 28.4,27.28 28.4,47.01 v 968.85 c 0,22.73 -7.25,44.87 -20.69,63.2 l -103.77,141.51"
         style="fill:#231f20;fill-opacity:1;fill-rule:nonzero;stroke:none;stroke-width:0.1"
         id="path266" />
      <path
         d="m 4257.24,1507.45 c -13.44,-18.33 -20.69,-40.47 -20.69,-63.2 V 475.4 c 0,-19.73 10.93,-37.83 28.39,-47.01 l 38.82,-20.42 c 26.01,-13.68 57.25,5.18 57.25,34.57 v 1206.42 l -103.77,-141.51"
         style="fill:#231f20;fill-opacity:1;fill-rule:nonzero;stroke:none;stroke-width:0.1"
         id="path268" />
      <path
         d="m 4380.07,1173.74 h -884.99 v 36.37 h 884.99 v -36.37"
         style="fill:#2c84e1;fill-opacity:1;fill-rule:nonzero;stroke:none;stroke-width:0.1"
         id="path270" />
      <path
         d="m 3695.54,755.64 -185.97,-70.32 -12.86,34.02 185.96,70.32 12.87,-34.02"
         style="fill:#2c84e1;fill-opacity:1;fill-rule:nonzero;stroke:none;stroke-width:0.1"
         id="path272" />
      <path
         d="m 4181.66,755.64 185.97,-70.32 12.86,34.02 -185.97,70.32 -12.86,-34.02"
         style="fill:#2c84e1;fill-opacity:1;fill-rule:nonzero;stroke:none;stroke-width:0.1"
         id="path274" />
      <path
         d="m 4217,415.58 c -13.18,10.5 -29.54,16.22 -46.4,16.22 h -232 -232 c -16.86,0 -33.22,-5.72 -46.4,-16.22 l -51.16,-40.76 h 329.56 329.56 L 4217,415.58"
         style="fill:#231f20;fill-opacity:1;fill-rule:nonzero;stroke:none;stroke-width:0.1"
         id="path276" />
      <path
         d="m 4123.66,1502.71 h -372.18 c -36.82,0 -66.67,-29.85 -66.67,-66.68 V 551.05 c 0,-36.83 29.85,-66.68 66.67,-66.68 h 372.18 c 36.83,0 66.68,29.85 66.68,66.68 v 884.98 c 0,36.83 -29.85,66.68 -66.68,66.68"
         style="fill:#55abf9;fill-opacity:1;fill-rule:nonzero;stroke:none;stroke-width:0.1"
         id="path278" />
      <path
         d="m 4092.26,1438.02 h -307.32 c -16.07,0 -29.1,-13.03 -29.1,-29.1 v -92.74 c 0,-16.07 13.03,-29.09 29.1,-29.09 h 307.32 c 16.07,0 29.09,13.02 29.09,29.09 v 92.74 c 0,16.07 -13.02,29.1 -29.09,29.1"
         style="fill:#231f20;fill-opacity:1;fill-rule:nonzero;stroke:none;stroke-width:0.1"
         id="path280" />
      <path
         d="m 4326.72,1826.5 v 154.64 l -183.56,368.54 c 0,0 -114.66,55.76 -205.59,55.76 -90.92,0 -205.59,-55.76 -205.59,-55.76 l -183.56,-368.54 v -155.21 c 147.25,40.95 390.18,42.46 390.18,42.46 0,0 240.68,-1.5 388.12,-41.89"
         style="fill:#55abf9;fill-opacity:1;fill-rule:nonzero;stroke:none;stroke-width:0.1"
         id="path282" />
      <path
         d="m 3488.72,2301.84 v -19.19 l 164.87,25.46 4.42,37.32 c -54.33,-3.52 -120.12,-16.99 -154.09,-24.6 -8.89,-1.99 -15.2,-9.87 -15.2,-18.99"
         style="fill:#eaea28;fill-opacity:1;fill-rule:nonzero;stroke:none;stroke-width:0.1"
         id="path284" />
      <path
         d="m 4373.22,2321.73 c -35.84,7.93 -101.05,20.97 -154.06,23.94 l 4.45,-37.56 164.87,-25.46 v 20.08 c 0,9.13 -6.34,17.03 -15.26,19"
         style="fill:#eaea28;fill-opacity:1;fill-rule:nonzero;stroke:none;stroke-width:0.1"
         id="path286" />
      <path
         d="m 3708.84,2384.71 -144.36,-269.31 93.53,230.03 z"
         style="fill:#55abf9;fill-opacity:1;fill-rule:nonzero;stroke:none;stroke-width:0.1"
         id="path288" />
      <path
         d="m 4172.35,2384.71 144.36,-269.31 -97.55,230.27 z"
         style="fill:#55abf9;fill-opacity:1;fill-rule:nonzero;stroke:none;stroke-width:0.1"
         id="path290" />
      <path
         d="m 3734.02,1216.47 c -7.73,0 -14,-6.27 -14,-14 V 549.18 c 0,-7.73 6.27,-14 14,-14 7.73,0 14,6.27 14,14 v 653.29 c 0,7.73 -6.27,14 -14,14"
         style="fill:#2c84e1;fill-opacity:1;fill-rule:nonzero;stroke:none;stroke-width:0.1"
         id="path292" />
      <path
         d="m 3802.21,1216.47 c -7.73,0 -14,-6.27 -14,-14 V 549.18 c 0,-7.73 6.27,-14 14,-14 7.74,0 14,6.27 14,14 v 653.29 c 0,7.73 -6.26,14 -14,14"
         style="fill:#2c84e1;fill-opacity:1;fill-rule:nonzero;stroke:none;stroke-width:0.1"
         id="path294" />
      <path
         d="m 3870.41,1216.47 c -7.74,0 -14,-6.27 -14,-14 V 549.18 c 0,-7.73 6.26,-14 14,-14 7.73,0 14,6.27 14,14 v 653.29 c 0,7.73 -6.27,14 -14,14"
         style="fill:#2c84e1;fill-opacity:1;fill-rule:nonzero;stroke:none;stroke-width:0.1"
         id="path296" />
      <path
         d="m 3938.6,1216.47 c -7.73,0 -14,-6.27 -14,-14 V 549.18 c 0,-7.73 6.27,-14 14,-14 7.73,0 14,6.27 14,14 v 653.29 c 0,7.73 -6.27,14 -14,14"
         style="fill:#2c84e1;fill-opacity:1;fill-rule:nonzero;stroke:none;stroke-width:0.1"
         id="path298" />
      <path
         d="m 4006.79,1216.47 c -7.73,0 -14,-6.27 -14,-14 V 549.18 c 0,-7.73 6.27,-14 14,-14 7.73,0 14,6.27 14,14 v 653.29 c 0,7.73 -6.27,14 -14,14"
         style="fill:#2c84e1;fill-opacity:1;fill-rule:nonzero;stroke:none;stroke-width:0.1"
         id="path300" />
      <path
         d="m 4074.98,1216.47 c -7.73,0 -14,-6.27 -14,-14 V 549.18 c 0,-7.73 6.27,-14 14,-14 7.74,0 14,6.27 14,14 v 653.29 c 0,7.73 -6.26,14 -14,14"
         style="fill:#2c84e1;fill-opacity:1;fill-rule:nonzero;stroke:none;stroke-width:0.1"
         id="path302" />
      <path
         d="m 4143.18,1216.47 c -7.74,0 -14,-6.27 -14,-14 V 549.18 c 0,-7.73 6.26,-14 14,-14 7.73,0 14,6.27 14,14 v 653.29 c 0,7.73 -6.27,14 -14,14"
         style="fill:#2c84e1;fill-opacity:1;fill-rule:nonzero;stroke:none;stroke-width:0.1"
         id="path304" />
    </g>
  </g>
</svg>
