<?xml version="1.0" encoding="UTF-8" standalone="no"?>
<!-- Created with Inkscape (http://www.inkscape.org/) -->

<svg
   version="1.1"
   id="svg18"
   width="1777.0776"
   height="2810.6931"
   viewBox="0 0 1777.0776 2810.6931"
   sodipodi:docname="top_view_car.eps"
   xmlns:inkscape="http://www.inkscape.org/namespaces/inkscape"
   xmlns:sodipodi="http://sodipodi.sourceforge.net/DTD/sodipodi-0.dtd"
   xmlns="http://www.w3.org/2000/svg"
   xmlns:svg="http://www.w3.org/2000/svg">
  <defs
     id="defs22" />
  <sodipodi:namedview
     id="namedview20"
     pagecolor="#ffffff"
     bordercolor="#000000"
     borderopacity="0.25"
     inkscape:showpageshadow="2"
     inkscape:pageopacity="0.0"
     inkscape:pagecheckerboard="0"
     inkscape:deskcolor="#d1d1d1"
     showgrid="false" />
  <g
     id="g26"
     inkscape:groupmode="layer"
     inkscape:label="Page 1"
     transform="matrix(1.3333333,0,0,-1.3333333,-2537.3682,3238.52)">
    <g
       id="g4782">
      <path
         d="m 3076.24,2092.24 h -52.98 v -332.78 h 52.98 c 30.41,0 55.06,24.65 55.06,55.07 v 222.64 c 0,30.41 -24.65,55.07 -55.06,55.07"
         style="fill:#231f20;fill-opacity:1;fill-rule:nonzero;stroke:none;stroke-width:0.1"
         id="path216" />
      <path
         d="m 2062.63,2092.24 h 52.98 v -332.78 h -52.98 c -30.41,0 -55.07,24.65 -55.07,55.07 v 222.64 c 0,30.41 24.66,55.07 55.07,55.07"
         style="fill:#231f20;fill-opacity:1;fill-rule:nonzero;stroke:none;stroke-width:0.1"
         id="path218" />
      <path
         d="m 3076.24,905.89 h -52.98 V 573.11 h 52.98 c 30.41,0 55.06,24.65 55.06,55.07 v 222.64 c 0,30.41 -24.65,55.07 -55.06,55.07"
         style="fill:#231f20;fill-opacity:1;fill-rule:nonzero;stroke:none;stroke-width:0.1"
         id="path220" />
      <path
         d="m 2062.63,905.89 h 52.98 V 573.11 h -52.98 c -30.41,0 -55.07,24.65 -55.07,55.07 v 222.64 c 0,30.41 24.66,55.07 55.07,55.07"
         style="fill:#231f20;fill-opacity:1;fill-rule:nonzero;stroke:none;stroke-width:0.1"
         id="path222" />
      <path
         d="M 3094.05,2043.59 V 543.65 c 0,-17.33 -2.63,-34.21 -7.56,-50.21 -15.22,-49.32 -52.4,-90.13 -102.41,-108.93 -29.53,-11.1 -65.5,-22.36 -108.52,-32.26 -77.82,-17.91 -178.7,-31.38 -306.13,-31.38 -127.42,0 -228.3,13.47 -306.13,31.38 -43.01,9.9 -78.99,21.16 -108.51,32.26 -50.02,18.8 -87.2,59.61 -102.41,108.93 -4.94,16 -7.56,32.88 -7.56,50.21 v 1499.94 c 0,15.76 0.95,31.31 2.79,46.58 10.2,84.68 47.88,160.91 103.86,219.51 30.04,31.46 65.36,57.84 104.54,77.71 52.29,26.54 111.46,41.5 174.12,41.5 h 278.6 c 62.66,0 121.83,-14.96 174.12,-41.5 39.18,-19.87 74.5,-46.25 104.55,-77.71 55.98,-58.6 93.65,-134.83 103.86,-219.51 1.84,-15.27 2.79,-30.82 2.79,-46.58"
         style="fill:#e04538;fill-opacity:1;fill-rule:nonzero;stroke:none;stroke-width:0.1"
         id="path224" />
      <path
         d="m 2563.99,1598.99 c 0,0 -270.39,-1.68 -405.19,-50.51 0,0 23.86,-94.34 131.07,-178.52 12.46,-9.77 27.82,-15.12 43.65,-15.12 h 230.47 230.47 c 15.83,0 31.2,5.35 43.65,15.12 107.21,84.18 131.07,178.52 131.07,178.52 -134.8,48.83 -405.19,50.51 -405.19,50.51"
         style="fill:#231f20;fill-opacity:1;fill-rule:nonzero;stroke:none;stroke-width:0.1"
         id="path226" />
      <path
         d="m 2289.58,2325.03 c -103.55,-22.27 -177.43,-113.91 -177.43,-219.83 v -50.72 -428.25 c 185.67,42.14 451.84,43.8 451.84,43.8 0,0 276.77,-1.73 462.73,-46.34 v 430.79 50.72 c 0,105.92 -73.88,197.56 -177.43,219.83 -69.49,14.94 -161.55,26.54 -279.86,26.54 -118.31,0 -210.36,-11.6 -279.85,-26.54"
         style="fill:#f95850;fill-opacity:1;fill-rule:nonzero;stroke:none;stroke-width:0.1"
         id="path228" />
      <path
         d="m 2139.4,1458.32 c 0,0 105.23,-44.61 105.23,-161.75 0,-117.15 0,-70.31 0,-163.12 0,-92.81 -105.23,-114.44 -105.23,-114.44 v 439.31"
         style="fill:#231f20;fill-opacity:1;fill-rule:nonzero;stroke:none;stroke-width:0.1"
         id="path230" />
      <path
         d="m 2988.58,1458.32 c 0,0 -105.23,-44.61 -105.23,-161.75 0,-117.15 0,-70.31 0,-163.12 0,-92.81 116.12,-114.44 116.12,-114.44 l -10.89,439.31"
         style="fill:#231f20;fill-opacity:1;fill-rule:nonzero;stroke:none;stroke-width:0.1"
         id="path232" />
      <path
         d="m 2230.79,942.93 v -17.32 c 0,-122.3 99.15,-221.44 221.45,-221.44 h 111.75 112.63 c 122.3,0 221.45,99.14 221.45,221.44 v 17.32 h -667.28"
         style="fill:#231f20;fill-opacity:1;fill-rule:nonzero;stroke:none;stroke-width:0.1"
         id="path234" />
      <path
         d="m 2981.43,737.72 h -10 c -12.11,0 -23.76,-4.81 -32.23,-13.47 -55.7,-56.93 -133.38,-92.26 -219.32,-92.26 h -156.06 -154.84 c -85.94,0 -163.62,35.33 -219.32,92.26 -8.47,8.66 -20.12,13.47 -32.23,13.47 -25.01,0 -45.28,-20.27 -45.28,-45.28 v -36.58 -53.18 c 0,-61.67 38.13,-117.01 95.85,-138.71 72.31,-27.19 188.98,-55.47 361.43,-55.47 172.45,0 289.12,28.28 361.44,55.47 57.72,21.7 95.85,77.04 95.85,138.71 v 53.18 36.58 c 0,25.01 -20.28,45.28 -45.29,45.28"
         style="fill:#f95850;fill-opacity:1;fill-rule:nonzero;stroke:none;stroke-width:0.1"
         id="path236" />
      <path
         d="m 2791.25,1302.7 h -458.89 c -28.91,0 -52.35,-23.44 -52.35,-52.35 v -205.72 c 0,-28.91 23.44,-52.35 52.35,-52.35 h 458.89 c 28.92,0 52.35,23.44 52.35,52.35 v 205.72 c 0,28.91 -23.43,52.35 -52.35,52.35"
         style="fill:#f95850;fill-opacity:1;fill-rule:nonzero;stroke:none;stroke-width:0.1"
         id="path238" />
      <path
         d="m 3209.67,1611.37 c -70.2,35.36 -123.83,20.04 -145.02,10.98 v -21.72 c 5.74,-0.78 13.16,-3.89 22.31,-11.72 2.53,-2.17 5.21,-4.7 8.01,-7.64 20.53,-21.56 105.72,-21.45 132.66,-5.24 13.37,8.04 12.39,20.05 -17.96,35.34"
         style="fill:#f95850;fill-opacity:1;fill-rule:nonzero;stroke:none;stroke-width:0.1"
         id="path240" />
      <path
         d="m 1929.2,1611.37 c 70.19,35.36 123.83,20.04 145.02,10.98 v -21.72 c -5.74,-0.78 -13.16,-3.89 -22.32,-11.72 -2.53,-2.17 -5.2,-4.7 -8,-7.64 -20.53,-21.56 -105.72,-21.45 -132.67,-5.24 -13.37,8.04 -12.39,20.05 17.97,35.34"
         style="fill:#f95850;fill-opacity:1;fill-rule:nonzero;stroke:none;stroke-width:0.1"
         id="path242" />
      <path
         d="m 2263.3,352.25 c -43.01,9.9 -78.99,21.16 -108.51,32.26 -50.01,18.8 -87.2,59.61 -102.41,108.93 56.41,-12.7 148.86,-47.31 210.92,-141.19"
         style="fill:#a03306;fill-opacity:1;fill-rule:nonzero;stroke:none;stroke-width:0.1"
         id="path244" />
      <path
         d="m 3086.49,493.44 c -15.22,-49.32 -52.4,-90.13 -102.41,-108.93 -29.53,-11.1 -65.5,-22.36 -108.51,-32.26 62.06,93.88 154.51,128.49 210.92,141.19"
         style="fill:#a03306;fill-opacity:1;fill-rule:nonzero;stroke:none;stroke-width:0.1"
         id="path246" />
      <path
         d="m 2708.73,2384.42 c 62.66,0 121.83,-14.96 174.12,-41.49 31.73,-16.1 60.92,-36.46 86.83,-60.33 l 17.72,13.73 c -30.05,31.46 -65.37,57.84 -104.55,77.72 -52.29,26.54 -111.46,41.5 -174.12,41.5 h -49.56 c -3.02,-10.83 -3.73,-21.69 -0.01,-31.17 l 0.01,0.04 h 49.56"
         style="fill:#eaea28;fill-opacity:1;fill-rule:nonzero;stroke:none;stroke-width:0.1"
         id="path248" />
      <path
         d="m 2430.13,2384.42 h 49.56 l 0.01,-0.04 c 3.73,9.48 3.02,20.34 -0.01,31.17 h -49.56 c -62.66,0 -121.83,-14.96 -174.12,-41.5 -39.18,-19.88 -74.5,-46.26 -104.54,-77.72 l 17.71,-13.73 c 25.91,23.87 55.11,44.23 86.83,60.33 52.29,26.53 111.46,41.49 174.12,41.49"
         style="fill:#eaea28;fill-opacity:1;fill-rule:nonzero;stroke:none;stroke-width:0.1"
         id="path250" />
    </g>
  </g>
</svg>
