<?xml version="1.0" encoding="UTF-8" standalone="no"?>
<!-- Created with Inkscape (http://www.inkscape.org/) -->

<svg
   version="1.1"
   id="svg18"
   width="1610.7512"
   height="2679.6799"
   viewBox="0 0 1610.7512 2679.6799"
   sodipodi:docname="top_view_car.eps"
   xmlns:inkscape="http://www.inkscape.org/namespaces/inkscape"
   xmlns:sodipodi="http://sodipodi.sourceforge.net/DTD/sodipodi-0.dtd"
   xmlns="http://www.w3.org/2000/svg"
   xmlns:svg="http://www.w3.org/2000/svg">
  <defs
     id="defs22" />
  <sodipodi:namedview
     id="namedview20"
     pagecolor="#ffffff"
     bordercolor="#000000"
     borderopacity="0.25"
     inkscape:showpageshadow="2"
     inkscape:pageopacity="0.0"
     inkscape:pagecheckerboard="0"
     inkscape:deskcolor="#d1d1d1"
     showgrid="false" />
  <g
     id="g26"
     inkscape:groupmode="layer"
     inkscape:label="Page 1"
     transform="matrix(1.3333333,0,0,-1.3333333,-703.77741,6204.2932)">
    <g
       id="g3752">
      <path
         d="m 1619.27,4377.68 -23.52,0.62 -7.85,-296.38 23.52,-0.62 c 20.75,-0.55 38.02,15.83 38.57,36.58 l 5.86,221.23 c 0.55,20.75 -15.83,38.02 -36.58,38.57"
         style="fill:#231f20;fill-opacity:1;fill-rule:nonzero;stroke:none;stroke-width:0.1"
         id="path44"
         inkscape:export-filename="./path44.svg"
         inkscape:export-xdpi="96"
         inkscape:export-ydpi="96" />
      <path
         d="m 644.46,4377.68 23.521,0.62 7.854,-296.38 -23.521,-0.62 c -20.754,-0.55 -38.024,15.83 -38.574,36.58 l -5.863,221.23 c -0.55,20.75 15.829,38.02 36.583,38.57"
         style="fill:#231f20;fill-opacity:1;fill-rule:nonzero;stroke:none;stroke-width:0.1"
         id="path46" />
      <path
         d="m 1587.76,3266.29 -23.52,0.62 -7.85,-296.38 23.52,-0.62 c 20.75,-0.55 38.02,15.83 38.57,36.58 l 5.87,221.23 c 0.55,20.75 -15.83,38.02 -36.59,38.57"
         style="fill:#231f20;fill-opacity:1;fill-rule:nonzero;stroke:none;stroke-width:0.1"
         id="path48" />
      <path
         d="m 675.967,3261.95 23.521,0.62 7.854,-296.38 -23.521,-0.62 c -20.754,-0.55 -38.025,15.83 -38.574,36.58 l -5.863,221.23 c -0.55,20.75 15.829,38.02 36.583,38.57"
         style="fill:#231f20;fill-opacity:1;fill-rule:nonzero;stroke:none;stroke-width:0.1"
         id="path50" />
      <path
         d="m 1626.8,4471.53 -48.96,-1686 c -1.26,-43.42 -28.83,-81.76 -69.67,-96.58 -60.95,-22.12 -173.37,-45.49 -376.3,-45.49 -202.946,0 -315.366,23.37 -376.317,45.49 -5.037,1.83 -9.873,4.01 -14.48,6.53 -32.754,17.83 -54.08,51.98 -55.183,90.05 l -0.223,7.61 v 0 L 636.93,4471.53 c -0.896,30.87 13.444,60.21 38.346,78.48 l 106.221,77.9 c 22.414,16.44 49.487,25.31 77.281,25.31 h 546.172 c 27.8,0 54.87,-8.87 77.28,-25.31 l 106.22,-77.9 c 24.91,-18.27 39.24,-47.61 38.35,-78.48"
         style="fill:#44aaaa;fill-opacity:1;fill-rule:nonzero;stroke:none;stroke-width:0.1"
         id="path52" />
      <path
         d="m 1131.87,3028.75 c -291.742,0 -389.274,50.14 -417.656,71.59 l 7.517,-258.89 c 1.145,-39.42 26.207,-74.13 63.24,-87.68 55.871,-20.43 159.355,-42.13 346.899,-42.13 187.53,0 291.02,21.7 346.89,42.13 37.03,13.55 62.09,48.26 63.24,87.68 l 7.52,258.89 c -28.39,-21.45 -125.92,-71.59 -417.65,-71.59"
         style="fill:#50c9c6;fill-opacity:1;fill-rule:nonzero;stroke:none;stroke-width:0.1"
         id="path54" />
      <path
         d="m 1566.15,4099.56 20.9,336.95 c 0.82,28.39 -12.36,55.38 -35.27,72.18 l -97.69,71.64 c -20.61,15.12 -45.51,23.27 -71.07,23.27 H 1131.87 880.712 c -25.563,0 -50.46,-8.15 -71.074,-23.27 l -97.69,-71.64 c -22.905,-16.8 -36.089,-43.79 -35.264,-72.18 l 21.877,-336.62 c 96.362,31.78 254.526,52.5 433.309,52.5 179.38,0 338.01,-20.86 434.28,-52.83"
         style="fill:#50c9c6;fill-opacity:1;fill-rule:nonzero;stroke:none;stroke-width:0.1"
         id="path56" />
      <path
         d="m 1131.87,4122.14 c 0,0 -278.703,-1.74 -417.656,-52.07 0,0 24.598,-97.23 135.106,-184 12.837,-10.07 28.671,-15.58 44.992,-15.58 h 237.558 237.55 c 16.32,0 32.15,5.51 44.99,15.58 110.51,86.77 135.11,184 135.11,184 -138.96,50.33 -417.65,52.07 -417.65,52.07"
         style="fill:#231f20;fill-opacity:1;fill-rule:nonzero;stroke:none;stroke-width:0.1"
         id="path58" />
      <path
         d="m 694.219,3996.31 c 0,0 108.472,-85.91 108.472,-311.53 0,-225.62 0,-135.4 0,-314.15 0,-178.74 -86.669,-220.39 -86.669,-220.39 l -21.803,846.07"
         style="fill:#231f20;fill-opacity:1;fill-rule:nonzero;stroke:none;stroke-width:0.1"
         id="path60" />
      <path
         d="m 1569.51,3996.31 c 0,0 -108.47,-85.91 -108.47,-311.53 0,-225.62 0,-135.4 0,-314.15 0,-178.74 86.67,-220.39 86.67,-220.39 l 21.8,846.07"
         style="fill:#231f20;fill-opacity:1;fill-rule:nonzero;stroke:none;stroke-width:0.1"
         id="path62" />
      <path
         d="m 1425.69,3240.15 c -8.8,22.21 -30.28,36.78 -54.17,36.78 H 1131.87 892.21 c -23.89,0 -45.368,-14.57 -54.167,-36.78 -13.146,-33.19 -36.06,-83.03 -68.4,-124.63 0,0 64.938,-52.06 362.227,-52.06 297.28,0 362.22,52.06 362.22,52.06 -32.34,41.6 -55.26,91.44 -68.4,124.63"
         style="fill:#231f20;fill-opacity:1;fill-rule:nonzero;stroke:none;stroke-width:0.1"
         id="path64" />
      <path
         d="m 803.792,4628.8 c -20.311,-14.21 -102.897,-76.74 -125.676,-94.01 -3.091,-2.34 -3.399,-6.87 -0.657,-9.61 8.941,-8.95 23.123,-9.88 33.159,-2.19 32.085,24.59 99.478,75.3 125.463,87.7 34.651,16.54 -8.663,34.65 -32.289,18.11"
         style="fill:#eaea28;fill-opacity:1;fill-rule:nonzero;stroke:none;stroke-width:0.1"
         id="path66" />
      <path
         d="m 1459.94,4628.8 c 20.31,-14.21 102.9,-76.74 125.67,-94.01 3.1,-2.34 3.4,-6.87 0.66,-9.61 -8.94,-8.95 -23.12,-9.88 -33.16,-2.19 -32.08,24.59 -99.48,75.3 -125.46,87.7 -34.65,16.54 8.66,34.65 32.29,18.11"
         style="fill:#eaea28;fill-opacity:1;fill-rule:nonzero;stroke:none;stroke-width:0.1"
         id="path68" />
      <path
         d="m 862.35,2697.21 c -148.47,23.38 -176.37,95.11 -176.683,95.93 l 0.223,-7.61 c 0.036,-1.21 0.093,-2.43 0.165,-3.63 0.073,-1.1 0.156,-2.2 0.259,-3.29 0.016,-0.13 0.026,-0.26 0.037,-0.38 0.166,-1.69 0.373,-3.37 0.616,-5.03 0.083,-0.58 0.177,-1.16 0.27,-1.74 0.093,-0.57 0.192,-1.15 0.295,-1.72 0.078,-0.44 0.161,-0.88 0.244,-1.31 0.135,-0.71 0.28,-1.41 0.43,-2.12 0.125,-0.57 0.249,-1.13 0.383,-1.7 0.13,-0.56 0.265,-1.13 0.405,-1.69 l 0.005,-0.02 c 0.14,-0.56 0.28,-1.11 0.43,-1.66 0.14,-0.54 0.29,-1.08 0.441,-1.62 0.176,-0.62 0.357,-1.24 0.549,-1.86 0.14,-0.45 0.28,-0.92 0.425,-1.37 l 0.078,-0.24 c 0.135,-0.42 0.274,-0.84 0.414,-1.26 0.213,-0.64 0.435,-1.28 0.664,-1.92 0.16,-0.46 0.326,-0.91 0.492,-1.37 0.43,-1.15 0.881,-2.29 1.347,-3.43 0.218,-0.53 0.441,-1.06 0.669,-1.59 0.228,-0.52 0.456,-1.05 0.695,-1.57 0.222,-0.49 0.445,-0.98 0.678,-1.47 0.104,-0.23 0.208,-0.46 0.316,-0.68 0.4,-0.83 0.809,-1.66 1.229,-2.49 0.186,-0.36 0.373,-0.72 0.565,-1.08 0.145,-0.29 0.3,-0.58 0.456,-0.86 0.145,-0.28 0.295,-0.56 0.45,-0.84 1.55,-2.83 3.224,-5.58 5.022,-8.25 0.208,-0.31 0.415,-0.62 0.627,-0.92 0.332,-0.49 0.674,-0.97 1.011,-1.45 0.202,-0.28 0.399,-0.56 0.607,-0.84 0.321,-0.44 0.647,-0.88 0.979,-1.32 0.197,-0.26 0.394,-0.52 0.591,-0.78 0.591,-0.77 1.186,-1.53 1.793,-2.28 0.352,-0.44 0.71,-0.87 1.068,-1.3 0.238,-0.28 0.476,-0.57 0.72,-0.85 8.276,-9.68 18.32,-17.9 29.758,-24.12 4.607,-2.52 9.443,-4.7 14.48,-6.53 31.515,-11.43 76.789,-23.21 141.218,-31.91 0,20.04 -14.62,37.06 -34.421,40.17"
         style="fill:#cc3b3b;fill-opacity:1;fill-rule:nonzero;stroke:none;stroke-width:0.1"
         id="path70" />
      <path
         d="m 1401.38,2697.21 c -19.8,-3.11 -34.42,-20.13 -34.42,-40.17 64.43,8.7 109.7,20.48 141.22,31.91 5.03,1.83 9.87,4.01 14.48,6.53 11.43,6.22 21.48,14.44 29.75,24.12 0.25,0.28 0.49,0.57 0.72,0.85 0.36,0.43 0.72,0.86 1.07,1.3 0.61,0.75 1.2,1.51 1.79,2.28 0.2,0.26 0.4,0.52 0.6,0.78 0.33,0.44 0.65,0.88 0.97,1.32 0.21,0.28 0.41,0.56 0.61,0.84 0.34,0.48 0.68,0.96 1.01,1.45 0.21,0.3 0.42,0.61 0.63,0.92 1.8,2.67 3.47,5.42 5.02,8.25 0.16,0.28 0.31,0.56 0.45,0.84 0.16,0.28 0.31,0.57 0.46,0.86 0.19,0.36 0.38,0.72 0.56,1.08 0.42,0.83 0.83,1.66 1.23,2.49 0.11,0.22 0.21,0.45 0.32,0.68 0.23,0.49 0.45,0.98 0.68,1.47 0.23,0.52 0.46,1.05 0.69,1.57 0.23,0.53 0.45,1.06 0.67,1.59 0.47,1.14 0.92,2.28 1.35,3.43 0.16,0.46 0.33,0.91 0.49,1.37 0.23,0.64 0.45,1.28 0.66,1.92 0.14,0.42 0.28,0.84 0.42,1.26 l 0.07,0.24 c 0.15,0.45 0.29,0.92 0.43,1.37 0.19,0.62 0.37,1.24 0.55,1.86 0.15,0.54 0.3,1.08 0.44,1.62 0.15,0.55 0.29,1.1 0.43,1.66 v 0.02 c 0.14,0.56 0.28,1.13 0.41,1.69 0.13,0.57 0.26,1.13 0.38,1.7 0.15,0.71 0.3,1.41 0.43,2.12 0.09,0.43 0.17,0.87 0.25,1.31 0.1,0.57 0.2,1.15 0.29,1.72 0.09,0.58 0.19,1.16 0.27,1.74 0.24,1.66 0.45,3.34 0.62,5.03 0.01,0.12 0.02,0.25 0.03,0.38 0.11,1.09 0.19,2.19 0.26,3.29 0.08,1.2 0.13,2.42 0.17,3.63 l 0.22,7.61 c -0.31,-0.82 -28.21,-72.55 -176.68,-95.93"
         style="fill:#cc3b3b;fill-opacity:1;fill-rule:nonzero;stroke:none;stroke-width:0.1"
         id="path72" />
      <path
         d="m 1712.17,4046.28 c -63.62,32.05 -112.23,18.17 -131.44,9.95 v -19.68 c 5.2,-0.71 11.93,-3.53 20.22,-10.63 2.3,-1.96 4.72,-4.25 7.26,-6.92 18.61,-19.54 95.83,-19.44 120.25,-4.75 12.12,7.29 11.23,18.17 -16.29,32.03"
         style="fill:#50c9c6;fill-opacity:1;fill-rule:nonzero;stroke:none;stroke-width:0.1"
         id="path74" />
      <path
         d="m 551.554,4046.28 c 63.624,32.05 112.237,18.17 131.443,9.95 v -19.68 c -5.203,-0.71 -11.927,-3.53 -20.223,-10.63 -2.296,-1.96 -4.717,-4.25 -7.256,-6.92 -18.61,-19.54 -95.828,-19.44 -120.249,-4.75 -12.117,7.29 -11.232,18.17 16.285,32.03"
         style="fill:#50c9c6;fill-opacity:1;fill-rule:nonzero;stroke:none;stroke-width:0.1"
         id="path76" />
      <path
         d="m 1453.45,3683.05 h 127.28 v -27.77 h -127.28 v 27.77"
         style="fill:#44aaaa;fill-opacity:1;fill-rule:nonzero;stroke:none;stroke-width:0.1"
         id="path78" />
      <path
         d="m 684.813,3683.05 h 127.284 v -27.77 H 684.813 v 27.77"
         style="fill:#44aaaa;fill-opacity:1;fill-rule:nonzero;stroke:none;stroke-width:0.1"
         id="path80" />
      <path
         d="M 1289.93,3310.55 H 973.805 c -72.131,0 -130.605,58.47 -130.605,130.6 v 261.38 c 0,72.13 58.474,130.6 130.605,130.6 h 316.125 c 72.13,0 130.6,-58.47 130.6,-130.6 v -261.38 c 0,-72.13 -58.47,-130.6 -130.6,-130.6"
         style="fill:#50c9c6;fill-opacity:1;fill-rule:nonzero;stroke:none;stroke-width:0.1"
         id="path82" />
    </g>
  </g>
</svg>
